<svg xmlns="http://www.w3.org/2000/svg" viewBox="0 0 1100 360" role="img" aria-label="SKKY AB watermark">
  <g opacity="0.86">
    <path d="M110 98c64 54 135 61 205 126-82-24-154-44-205-126Z" fill="#173b3f"/>
    <path d="M127 158c61 35 122 38 181 88-72-15-133-23-181-88Z" fill="#b77a34"/>
    <path d="M128 209c52 23 104 20 153 58-62-5-112-8-153-58Z" fill="#173b3f"/>
    <path d="M178 264c36 9 72 2 105 28-42 6-78 6-105-28Z" fill="#b77a34"/>
    <path d="M320 154c42-30 97-29 140 1-43-17-89-12-125 13l-15-14Z" fill="#173b3f"/>
    <path d="M361 173c34 0 69 19 85 46-24-10-49-8-70 1 20-8 24-18-15-47Z" fill="#173b3f"/>
    <path d="M407 164c48 2 94 34 101 81-23-25-49-39-78-45-5-14-13-26-23-36Z" fill="#173b3f"/>
    <path d="M344 173c31 33 44 74 29 134-17-57-26-92-57-117l28-17Z" fill="#173b3f"/>
    <text x="455" y="217" fill="#173b3f" font-family="Georgia, serif" font-size="120" letter-spacing="14">SKKY AB</text>
  </g>
</svg>
