<svg xmlns="http://www.w3.org/2000/svg" viewBox="0 0 512 512" role="img" aria-label="SKKY AB favicon">
  <rect width="512" height="512" rx="108" fill="#ffffff"/>
  <g transform="translate(72 104) scale(1.35)">
    <path d="M0 26c64 54 135 61 205 126-82-24-154-44-205-126Z" fill="#173b3f"/>
    <path d="M17 86c61 35 122 38 181 88-72-15-133-23-181-88Z" fill="#b77a34"/>
    <path d="M18 137c52 23 104 20 153 58-62-5-112-8-153-58Z" fill="#173b3f"/>
    <path d="M68 192c36 9 72 2 105 28-42 6-78 6-105-28Z" fill="#b77a34"/>
    <path d="M210 82c42-30 97-29 140 1-43-17-89-12-125 13l-15-14Z" fill="#173b3f"/>
    <path d="M251 101c34 0 69 19 85 46-24-10-49-8-70 1 20-8 24-18-15-47Z" fill="#173b3f"/>
    <path d="M297 92c48 2 94 34 101 81-23-25-49-39-78-45-5-14-13-26-23-36Z" fill="#173b3f"/>
    <path d="M234 101c31 33 44 74 29 134-17-57-26-92-57-117l28-17Z" fill="#173b3f"/>
  </g>
</svg>
